<?xml version="1.0" encoding="utf-8"?>
<!-- Generator: Adobe Illustrator 27.4.1, SVG Export Plug-In . SVG Version: 6.00 Build 0)  -->
<svg version="1.1" id="Layer_1" xmlns="http://www.w3.org/2000/svg" xmlns:xlink="http://www.w3.org/1999/xlink" x="0px" y="0px"
	 viewBox="0 0 230.9 243.6" style="enable-background:new 0 0 230.9 243.6;" xml:space="preserve">
<style type="text/css">
	.st0{fill:url(#SVGID_1_);}
	.st1{fill:url(#SVGID_00000153690392567899822820000007040645638985982092_);}
</style>
<g>
	<g>
		<linearGradient id="SVGID_1_" gradientUnits="userSpaceOnUse" x1="67" y1="97.15" x2="163.8" y2="97.15">
			<stop  offset="0.1156" style="stop-color:#FFAD6A"/>
			<stop  offset="1" style="stop-color:#FF5500"/>
		</linearGradient>
		<path class="st0" d="M115.4,171c26.7,0,48.4-19.3,48.4-43.1V66.4c0-23.8-21.7-43.1-48.4-43.1S67,42.6,67,66.4V128
			C67,151.8,88.7,171,115.4,171z M74,118.7h17.3c1.9,0,3.5-1.4,3.5-3.1s-1.5-3.1-3.5-3.1H74v-12.3h17.3c1.9,0,3.5-1.4,3.5-3.1
			S93.3,94,91.3,94H74V81.8h17.3c1.9,0,3.5-1.4,3.5-3.1s-1.5-3.1-3.5-3.1H74v-9.2c0-20.4,18.6-36.9,41.5-36.9S157,46,157,66.4v9.2
			h-17.3c-1.9,0-3.5,1.4-3.5,3.1s1.5,3.1,3.5,3.1H157v12.3h-17.3c-1.9,0-3.5,1.4-3.5,3.1s1.5,3.1,3.5,3.1H157v12.3h-17.3
			c-1.9,0-3.5,1.4-3.5,3.1s1.5,3.1,3.5,3.1H157v9.2c0,20.4-18.6,36.9-41.5,36.9S74,148.3,74,128V118.7z"/>
		
			<linearGradient id="SVGID_00000163787289027963011190000001914344564616930992_" gradientUnits="userSpaceOnUse" x1="39.3" y1="169.5" x2="191.4016" y2="169.5">
			<stop  offset="0.1156" style="stop-color:#FFAD6A"/>
			<stop  offset="1" style="stop-color:#FF5500"/>
		</linearGradient>
		<path style="fill:url(#SVGID_00000163787289027963011190000001914344564616930992_);" d="M181.1,118.7c-5.7,0-10.4,4.1-10.4,9.2
			c0,27.2-24.7,49.2-55.3,49.2s-55.3-22-55.3-49.2c0-5.1-4.6-9.2-10.4-9.2s-10.4,4.1-10.4,9.2c0,32.1,25.1,59,58.8,65.9V208
			c0,6.8,6.2,12.3,13.8,12.3h6.9c7.6,0,13.8-5.5,13.8-12.3v-14.1c33.7-7,58.8-33.8,58.8-65.9C191.5,122.9,186.8,118.7,181.1,118.7z
			 M132.7,187.5c-2.3,0.5-4.6,0.9-6.9,1.3V208c0,3.4-3.1,6.2-6.9,6.2H112c-3.8,0-6.9-2.8-6.9-6.2v-19.2c-2.4-0.3-4.6-0.7-6.9-1.3
			c-29.8-6.8-51.8-30.9-51.8-59.5c0-1.7,1.5-3.1,3.5-3.1s3.5,1.4,3.5,3.1c0,30.6,27.8,55.4,62.2,55.4s62.2-24.8,62.2-55.4
			c0-1.7,1.5-3.1,3.5-3.1s3.5,1.4,3.5,3.1C184.6,156.6,162.5,180.6,132.7,187.5z"/>
	</g>
</g>
</svg>
