<?xml version="1.0" encoding="utf-8"?>
<!-- Generator: Adobe Illustrator 27.4.1, SVG Export Plug-In . SVG Version: 6.00 Build 0)  -->
<svg version="1.1" id="Layer_1" xmlns="http://www.w3.org/2000/svg" xmlns:xlink="http://www.w3.org/1999/xlink" x="0px" y="0px"
	 viewBox="0 0 40 32" style="enable-background:new 0 0 40 32;" xml:space="preserve">
<style type="text/css">
	.st0{fill:#FFBC5E;}
	.st1{fill:#FFBF60;}
	.st2{fill:#FFDB6E;}
</style>
<g id="Group_41" transform="translate(-501 -342)">
	<circle id="Ellipse_8" class="st0" cx="516.3" cy="361.7" r="1.5"/>
	<g id="Group_40">
		<path id="Path_51" class="st1" d="M527.4,370.5c0,0.8-0.7,1.5-1.5,1.5h-19.1c-0.8,0-1.5-0.7-1.5-1.5v-25c0-0.8,0.7-1.5,1.5-1.5
			h19.1c0.8,0,1.5,0.7,1.5,1.5v8.8h1.5v-8.8c0-1.6-1.3-2.9-2.9-2.9h-19.1c-1.6,0-2.9,1.3-2.9,2.9v25c0,1.6,1.3,2.9,2.9,2.9h19.1
			c1.6,0,2.9-1.3,2.9-2.9V369h-1.5V370.5z"/>
		
			<image style="overflow:visible;" width="280" height="196" xlink:href="65967E1B.jpg"  transform="matrix(0.2107 0 0 0.1864 421.367 353.8229)">
		</image>
		<path id="Path_52" class="st2" d="M516.3,369c4.1,0,7.4-3.3,7.4-7.4c0-4.1-3.3-7.4-7.4-7.4s-7.4,3.3-7.4,7.4
			C509,365.7,512.3,369,516.3,369z M516.3,355.8c3.3,0,5.9,2.6,5.9,5.9s-2.6,5.9-5.9,5.9s-5.9-2.6-5.9-5.9
			C510.4,358.4,513.1,355.8,516.3,355.8z"/>
		<rect id="Rectangle_20" x="533.3" y="357.3" class="st1" width="1.5" height="8.8"/>
		<rect id="Rectangle_21" x="537.7" y="352.8" class="st1" width="1.5" height="17.7"/>
		<rect id="Rectangle_22" x="528.9" y="359.5" class="st1" width="1.5" height="4.4"/>
		<path id="Path_53" class="st2" d="M511.9,349.2c0-0.8-0.7-1.5-1.5-1.5s-1.5,0.7-1.5,1.5s0.7,1.5,1.5,1.5S511.9,350,511.9,349.2z
			 M510.4,349.2v0.7V349.2z"/>
		<path id="Path_54" class="st2" d="M522.2,347.7c-0.8,0-1.5,0.7-1.5,1.5s0.7,1.5,1.5,1.5s1.5-0.7,1.5-1.5S523,347.7,522.2,347.7z
			 M522.2,349.9v-0.7l0,0V349.9z"/>
		<path id="Path_55" class="st2" d="M517.8,349.2c0-0.8-0.7-1.5-1.5-1.5s-1.5,0.7-1.5,1.5s0.7,1.5,1.5,1.5S517.8,350,517.8,349.2z
			 M516.3,349.2v0.7V349.2z"/>
		<path id="Path_56" class="st2" d="M516.3,366.1c2.4,0,4.4-2,4.4-4.4s-2-4.4-4.4-4.4s-4.4,2-4.4,4.4
			C511.9,364.1,513.9,366.1,516.3,366.1z M516.3,358.7c1.6,0,2.9,1.3,2.9,2.9s-1.3,2.9-2.9,2.9s-2.9-1.3-2.9-2.9
			S514.7,358.7,516.3,358.7z"/>
	</g>
</g>
</svg>
