<?xml version="1.0" encoding="utf-8"?>
<!-- Generator: Adobe Illustrator 27.4.1, SVG Export Plug-In . SVG Version: 6.00 Build 0)  -->
<svg version="1.1" id="Layer_1" xmlns="http://www.w3.org/2000/svg" xmlns:xlink="http://www.w3.org/1999/xlink" x="0px" y="0px"
	 viewBox="0 0 40 32" style="enable-background:new 0 0 40 32;" xml:space="preserve">
<style type="text/css">
	.st0{fill:#FFBC5E;}
	.st1{fill:url(#Path_51_00000147919106562831918660000004703626188266246016_);}
	.st2{fill:url(#Path_52_00000008850931900812142340000004669173107249469313_);}
	.st3{fill:url(#Rectangle_20_00000117663283321899954320000014755117548066420901_);}
	.st4{fill:url(#Rectangle_21_00000111897648065883942640000008039990127266053047_);}
	.st5{fill:url(#Rectangle_22_00000158025936656109166100000016802402181173207704_);}
	.st6{fill:url(#Path_53_00000169553388991251711760000001849516143073505436_);}
	.st7{fill:url(#Path_54_00000180350659322373555360000015992468921646337448_);}
	.st8{fill:url(#Path_55_00000076601334746458704370000014211703045942527878_);}
	.st9{fill:url(#Path_56_00000153665861432711366730000001786165440031082132_);}
</style>
<g id="Group_41" transform="translate(-501 -342)">
	<circle id="Ellipse_8" class="st0" cx="516.3" cy="361.7" r="1.5"/>
	<g id="Group_40">
		
			<linearGradient id="Path_51_00000084517269731682626450000001568208369284114870_" gradientUnits="userSpaceOnUse" x1="503.375" y1="344.925" x2="529.525" y2="371.075">
			<stop  offset="0" style="stop-color:#FFAD6A"/>
			<stop  offset="1" style="stop-color:#FF5500"/>
		</linearGradient>
		<path id="Path_51" style="fill:url(#Path_51_00000084517269731682626450000001568208369284114870_);" d="M527.4,370.5
			c0,0.8-0.7,1.5-1.5,1.5h-19.1c-0.8,0-1.5-0.7-1.5-1.5v-25c0-0.8,0.7-1.5,1.5-1.5h19.1c0.8,0,1.5,0.7,1.5,1.5v8.8h1.5v-8.8
			c0-1.6-1.3-2.9-2.9-2.9h-19.1c-1.6,0-2.9,1.3-2.9,2.9v25c0,1.6,1.3,2.9,2.9,2.9H526c1.6,0,2.9-1.3,2.9-2.9V369h-1.5V370.5z"/>
		
			<linearGradient id="Path_52_00000067932229697619980530000007727523093934020248_" gradientUnits="userSpaceOnUse" x1="511.0812" y1="356.3438" x2="521.5563" y2="366.8188">
			<stop  offset="0" style="stop-color:#FFAD6A"/>
			<stop  offset="1" style="stop-color:#FF5500"/>
		</linearGradient>
		<path id="Path_52" style="fill:url(#Path_52_00000067932229697619980530000007727523093934020248_);" d="M516.3,369
			c4.1,0,7.4-3.3,7.4-7.4s-3.3-7.4-7.4-7.4s-7.4,3.3-7.4,7.4C509,365.7,512.3,369,516.3,369z M516.3,355.8c3.3,0,5.9,2.6,5.9,5.9
			s-2.6,5.9-5.9,5.9s-5.9-2.6-5.9-5.9S513.1,355.8,516.3,355.8z"/>
		
			<linearGradient id="Rectangle_20_00000172423182896962272120000009109890449590185894_" gradientUnits="userSpaceOnUse" x1="531.475" y1="359.125" x2="536.625" y2="364.275">
			<stop  offset="0" style="stop-color:#FFAD6A"/>
			<stop  offset="1" style="stop-color:#FF5500"/>
		</linearGradient>
		
			<rect id="Rectangle_20" x="533.3" y="357.3" style="fill:url(#Rectangle_20_00000172423182896962272120000009109890449590185894_);" width="1.5" height="8.8"/>
		
			<linearGradient id="Rectangle_21_00000085219269589947464320000001074764463689041546_" gradientUnits="userSpaceOnUse" x1="533.65" y1="356.85" x2="543.25" y2="366.45">
			<stop  offset="0" style="stop-color:#FFAD6A"/>
			<stop  offset="1" style="stop-color:#FF5500"/>
		</linearGradient>
		
			<rect id="Rectangle_21" x="537.7" y="352.8" style="fill:url(#Rectangle_21_00000085219269589947464320000001074764463689041546_);" width="1.5" height="17.7"/>
		
			<linearGradient id="Rectangle_22_00000011729251691145784440000000769836547690806436_" gradientUnits="userSpaceOnUse" x1="528.175" y1="360.225" x2="531.125" y2="363.175">
			<stop  offset="0" style="stop-color:#FFAD6A"/>
			<stop  offset="1" style="stop-color:#FF5500"/>
		</linearGradient>
		
			<rect id="Rectangle_22" x="528.9" y="359.5" style="fill:url(#Rectangle_22_00000011729251691145784440000000769836547690806436_);" width="1.5" height="4.4"/>
		
			<linearGradient id="Path_53_00000007411958194402178730000002020158121393448351_" gradientUnits="userSpaceOnUse" x1="509.35" y1="348.15" x2="511.45" y2="350.25">
			<stop  offset="0" style="stop-color:#FFAD6A"/>
			<stop  offset="1" style="stop-color:#FF5500"/>
		</linearGradient>
		<path id="Path_53" style="fill:url(#Path_53_00000007411958194402178730000002020158121393448351_);" d="M511.9,349.2
			c0-0.8-0.7-1.5-1.5-1.5s-1.5,0.7-1.5,1.5s0.7,1.5,1.5,1.5S511.9,350,511.9,349.2z M510.4,349.2v0.7V349.2z"/>
		
			<linearGradient id="Path_54_00000003812850604858260090000005516796148108729231_" gradientUnits="userSpaceOnUse" x1="521.15" y1="348.15" x2="523.25" y2="350.25">
			<stop  offset="0" style="stop-color:#FFAD6A"/>
			<stop  offset="1" style="stop-color:#FF5500"/>
		</linearGradient>
		<path id="Path_54" style="fill:url(#Path_54_00000003812850604858260090000005516796148108729231_);" d="M522.2,347.7
			c-0.8,0-1.5,0.7-1.5,1.5s0.7,1.5,1.5,1.5s1.5-0.7,1.5-1.5S523,347.7,522.2,347.7z M522.2,349.9v-0.7l0,0V349.9z"/>
		
			<linearGradient id="Path_55_00000047059817923899192000000015871462587181406127_" gradientUnits="userSpaceOnUse" x1="515.25" y1="348.15" x2="517.35" y2="350.25">
			<stop  offset="0" style="stop-color:#FFAD6A"/>
			<stop  offset="1" style="stop-color:#FF5500"/>
		</linearGradient>
		<path id="Path_55" style="fill:url(#Path_55_00000047059817923899192000000015871462587181406127_);" d="M517.8,349.2
			c0-0.8-0.7-1.5-1.5-1.5s-1.5,0.7-1.5,1.5s0.7,1.5,1.5,1.5S517.8,350,517.8,349.2z M516.3,349.2v0.7V349.2z"/>
		
			<linearGradient id="Path_56_00000031913839896256456950000010668261113248373407_" gradientUnits="userSpaceOnUse" x1="513.2" y1="358.6" x2="519.4" y2="364.8">
			<stop  offset="0" style="stop-color:#FFAD6A"/>
			<stop  offset="1" style="stop-color:#FF5500"/>
		</linearGradient>
		<path id="Path_56" style="fill:url(#Path_56_00000031913839896256456950000010668261113248373407_);" d="M516.3,366.1
			c2.4,0,4.4-2,4.4-4.4s-2-4.4-4.4-4.4s-4.4,2-4.4,4.4S513.9,366.1,516.3,366.1z M516.3,358.7c1.6,0,2.9,1.3,2.9,2.9
			s-1.3,2.9-2.9,2.9s-2.9-1.3-2.9-2.9S514.7,358.7,516.3,358.7z"/>
	</g>
</g>
</svg>
